<svg width="23" height="21" viewBox="0 0 23 21" fill="none" xmlns="http://www.w3.org/2000/svg">
<path d="M20.857 15.9513C20.8598 16.0412 20.8625 16.131 20.8472 16.2525C20.8239 16.7983 20.8179 17.3125 20.815 17.8267C20.8149 17.8509 20.8426 17.8753 20.8573 17.8996C20.8603 17.9323 20.8632 17.9651 20.8539 18.018C20.847 18.0509 20.8522 18.0635 20.8574 18.0762C20.8602 18.1372 20.863 18.1982 20.8478 18.2897C20.8387 18.5193 20.8477 18.7184 20.8566 18.9176C20.8593 18.9505 20.8619 18.9835 20.8483 19.0417C20.8398 19.1203 20.8477 19.1736 20.8555 19.2269C20.8584 19.274 20.8613 19.3212 20.8497 19.3921C20.842 19.4414 20.8489 19.467 20.8558 19.4926C20.8594 19.6411 20.863 19.7896 20.8545 19.9618C20.8389 19.9899 20.8315 19.9971 20.8324 19.9985C20.8386 20.0074 20.8467 20.0151 20.8541 20.0231C20.8227 20.5118 20.4148 20.9199 19.8877 20.9862C19.8002 20.9972 19.7111 20.9992 19.6228 20.9992C14.1475 20.9999 8.67223 21.0021 3.19698 20.9937C2.94721 20.9933 2.67496 20.9433 2.45276 20.8351C2.03446 20.6314 1.88933 20.248 1.89018 19.7888C1.89514 17.1176 1.89234 14.4464 1.89226 11.7752C1.89225 11.1849 1.89261 10.5945 1.89279 10.0042C1.89282 9.92478 1.89279 9.84534 1.89279 9.74009C1.49859 9.74009 1.13155 9.7447 0.764674 9.73896C0.267548 9.73117 -0.0603275 9.42011 0.00930864 8.97134C0.0393172 8.77795 0.156606 8.55043 0.307467 8.43059C2.72709 6.50861 5.15822 4.60113 7.58746 2.69128C8.58473 1.90723 9.58176 1.12286 10.5827 0.343469C11.1743 -0.11726 11.6041 -0.114929 12.1984 0.353218C13.189 1.13361 14.1745 1.92042 15.1625 2.70419C15.2186 2.74869 15.2771 2.79009 15.3694 2.85899C15.3694 2.46324 15.3695 2.10594 15.3694 1.74865C15.3693 1.32682 15.5877 1.07358 16.0102 1.06578C16.7182 1.05269 17.4269 1.05771 18.1349 1.07524C18.2704 1.0786 18.4036 1.17485 18.5455 1.2602C18.5823 1.53779 18.631 1.78297 18.6365 2.02911C18.649 2.59075 18.6403 3.15285 18.6403 3.71477C18.6403 4.23995 18.6378 4.76515 18.6435 5.29026C18.6442 5.35994 18.6863 5.42918 18.7092 5.49862C19.7163 6.28865 20.7233 7.0788 21.7305 7.86861C21.9679 8.05472 22.2075 8.23793 22.4436 8.42561C22.7256 8.64976 22.8348 8.97106 22.734 9.26576C22.637 9.54974 22.363 9.7318 22.0064 9.73756C21.6827 9.74278 21.3586 9.73291 21.0351 9.74284C20.9775 9.74461 20.9218 9.81063 20.8532 9.86949C20.8462 9.90439 20.8513 9.91678 20.8565 9.92917C20.8596 10.0047 20.8627 10.0802 20.8477 10.1869C20.824 10.7322 20.8178 11.2462 20.8147 11.7602C20.8146 11.7845 20.842 11.809 20.8566 11.8334C20.8594 11.8663 20.8622 11.8991 20.8471 11.9607C20.8229 12.018 20.8111 12.0463 20.8111 12.0747C20.81 13.3131 20.8094 14.5514 20.8118 15.7898C20.812 15.8437 20.8413 15.8975 20.857 15.9513ZM8.75889 8.43286C9.2542 8.32285 9.74504 8.18286 10.2456 8.10815C12.1379 7.82575 13.9158 8.20232 15.5623 9.15003C16.133 9.47847 16.6446 9.91201 17.1714 10.313C17.5029 10.5652 17.9312 10.5551 18.1857 10.257C18.4355 9.96438 18.3992 9.54417 18.0982 9.27039C17.9456 9.13156 17.7938 8.99137 17.6347 8.86015C15.9835 7.49782 14.0811 6.75304 11.9516 6.62761C10.0158 6.51359 8.19091 6.93541 6.49718 7.89858C5.81275 8.2878 5.20211 8.77118 4.62944 9.30612C4.42197 9.49992 4.36257 9.74841 4.43874 10.014C4.51416 10.277 4.70809 10.4278 4.97698 10.4817C5.26899 10.5403 5.48935 10.4078 5.69485 10.2234C6.5845 9.42524 7.59528 8.83289 8.75889 8.43286ZM8.91079 9.87327C8.02857 10.2017 7.24957 10.6974 6.55692 11.3313C6.2651 11.5984 6.22675 12.0009 6.46043 12.282C6.71276 12.5856 7.16536 12.6374 7.4744 12.3947C7.58451 12.3082 7.68445 12.2086 7.79545 12.1234C9.27561 10.9873 10.9207 10.5879 12.7488 11.0263C13.6926 11.2527 14.5172 11.7085 15.243 12.3483C15.5218 12.594 15.8968 12.6169 16.1765 12.4042C16.4464 12.199 16.5452 11.834 16.369 11.5367C16.2749 11.3781 16.1189 11.2491 15.972 11.1299C13.8626 9.41808 11.5179 8.9956 8.91079 9.87327ZM12.0436 12.3782C11.9555 12.371 11.8672 12.3648 11.7792 12.3563C10.5204 12.2346 9.42691 12.6216 8.47486 13.4358C8.25068 13.6275 8.19766 13.8777 8.26988 14.1584C8.34021 14.4318 8.52269 14.575 8.79432 14.6304C9.05562 14.6837 9.27077 14.5987 9.46882 14.4406C10.1718 13.8794 10.9611 13.6256 11.8609 13.7748C12.4127 13.8663 12.8893 14.1154 13.3205 14.4676C13.6473 14.7347 14.1284 14.6942 14.3767 14.397C14.6252 14.0994 14.5628 13.6666 14.2205 13.3807C13.5967 12.8593 12.8858 12.5217 12.0436 12.3782ZM10.5127 17.7271C10.8559 17.9556 11.2233 18.0681 11.6411 17.9919C12.2268 17.885 12.7186 17.4101 12.8317 16.8265C12.9404 16.2659 12.6649 15.6344 12.1809 15.3345C11.656 15.0092 10.9516 15.0421 10.477 15.414C9.719 16.0079 9.72326 17.0377 10.5127 17.7271Z" fill="url(#paint0_linear_87_51)"/>
<path d="M8.74272 8.4397C7.59529 8.83289 6.58451 9.42524 5.69486 10.2234C5.48936 10.4078 5.269 10.5403 4.97699 10.4817C4.7081 10.4278 4.51417 10.277 4.43875 10.014C4.36257 9.74841 4.42198 9.49992 4.62944 9.30612C5.20211 8.77117 5.81276 8.2878 6.49719 7.89858C8.19092 6.93541 10.0158 6.51359 11.9517 6.62761C14.0811 6.75304 15.9835 7.49782 17.6347 8.86014C17.7938 8.99137 17.9456 9.13156 18.0982 9.27039C18.3992 9.54417 18.4355 9.96438 18.1857 10.257C17.9312 10.5551 17.5029 10.5652 17.1715 10.313C16.6446 9.91201 16.133 9.47847 15.5623 9.15002C13.9158 8.20232 12.1379 7.82574 10.2456 8.10815C9.74505 8.18286 9.25421 8.32285 8.74272 8.4397Z" fill="#F1F9FE"/>
<path d="M8.92628 9.86595C11.5179 8.99561 13.8626 9.41809 15.972 11.1299C16.1189 11.2491 16.2749 11.3781 16.369 11.5367C16.5452 11.834 16.4464 12.199 16.1765 12.4042C15.8968 12.6169 15.5218 12.594 15.243 12.3483C14.5172 11.7085 13.6926 11.2527 12.7488 11.0263C10.9207 10.5879 9.27562 10.9873 7.79546 12.1234C7.68445 12.2086 7.58452 12.3082 7.47441 12.3947C7.16537 12.6374 6.71277 12.5856 6.46043 12.282C6.22675 12.0009 6.26511 11.5984 6.55693 11.3313C7.24958 10.6974 8.02858 10.2017 8.92628 9.86595Z" fill="#F1F9FE"/>
<path d="M12.0626 12.3825C12.8858 12.5217 13.5967 12.8593 14.2205 13.3807C14.5628 13.6666 14.6252 14.0994 14.3767 14.397C14.1284 14.6942 13.6473 14.7347 13.3205 14.4676C12.8893 14.1154 12.4127 13.8663 11.8609 13.7748C10.9611 13.6256 10.1718 13.8794 9.46881 14.4406C9.27075 14.5987 9.05561 14.6837 8.79431 14.6304C8.52267 14.575 8.34019 14.4318 8.26986 14.1584C8.19765 13.8777 8.25067 13.6275 8.47485 13.4358C9.42689 12.6216 10.5204 12.2346 11.7792 12.3563C11.8672 12.3648 11.9555 12.371 12.0626 12.3825Z" fill="#F1F9FE"/>
<path d="M10.4996 17.718C9.72326 17.0377 9.719 16.008 10.477 15.414C10.9516 15.0421 11.656 15.0092 12.1809 15.3345C12.6649 15.6344 12.9404 16.2659 12.8317 16.8265C12.7186 17.4101 12.2268 17.885 11.6411 17.9919C11.2233 18.0681 10.8559 17.9556 10.4996 17.718Z" fill="#F1F9FE"/>
<defs>
<linearGradient id="paint0_linear_87_51" x1="7.60075" y1="8.75653" x2="33" y2="26" gradientUnits="userSpaceOnUse">
<stop stop-color="#25AAE8"/>
<stop offset="1" stop-color="#0B80BE"/>
</linearGradient>
</defs>
</svg>
